<svg width="60" height="52" viewBox="0 0 60 52" fill="none" xmlns="http://www.w3.org/2000/svg">
<path d="M48.0655 50.2545C48.0655 50.7024 47.7024 51.0653 47.2547 51.0653H12.7313C12.2834 51.0653 11.9204 50.7024 11.9204 50.2545C11.9204 49.8066 12.2834 49.4437 12.7313 49.4437H47.2548C47.7024 49.4437 48.0655 49.8066 48.0655 50.2545ZM59.9507 23.6558C58.3628 28.0478 54.7422 30.8856 50.7271 30.8856C46.7115 30.8856 43.0914 28.0478 41.5041 23.6556C41.4297 23.451 41.4413 23.2252 41.5357 23.0288L49.0729 7.34498C48.4834 7.49205 47.9013 7.55861 47.3265 7.55861C45.6273 7.55861 43.9872 7.01064 42.3783 6.47334C39.8159 5.61775 37.3893 4.81373 34.8076 6.26229C34.5893 8.43271 32.9292 10.1795 30.8036 10.5403V35.9104C36.2965 36.2081 41.1881 39.5026 43.4124 44.4852C43.5243 44.736 43.5015 45.0265 43.3521 45.257C43.2022 45.4874 42.9462 45.6265 42.6717 45.6265H17.314C17.0392 45.6265 16.7833 45.4874 16.6338 45.257C16.4842 45.0266 16.4618 44.736 16.5736 44.4852C18.7975 39.5028 23.6895 36.2083 29.1822 35.9105V10.5402C27.054 10.1789 25.3934 8.42861 25.178 6.2549C22.6004 4.81584 20.1785 5.61893 17.6201 6.47334C16.0113 7.01076 14.3707 7.55861 12.6718 7.55861C12.0968 7.55861 11.5149 7.49217 10.9255 7.34498L18.4629 23.0288C18.5571 23.2252 18.5685 23.4511 18.4945 23.6556C16.9067 28.0478 13.2863 30.8856 9.27095 30.8856C5.2554 30.8856 1.63501 28.0478 0.0473562 23.6556C-0.0265891 23.451 -0.0152219 23.2252 0.0789968 23.0288L8.54005 5.42311C8.65267 5.1892 8.87872 5.01951 9.13478 4.9758C9.40689 4.92939 9.61607 5.04107 9.84318 5.17115C12.2548 6.55666 14.5069 5.80338 17.1063 4.93537C19.5883 4.10592 22.3667 3.18471 25.3255 4.51549C25.8817 2.4565 27.7604 0.935059 29.9929 0.935059C32.2268 0.935059 34.1071 2.45908 34.6616 4.52064C37.6243 3.1826 40.4066 4.10486 42.8918 4.93525C45.4655 5.79506 47.7005 6.54213 50.087 5.21088C50.3421 5.06861 50.5982 4.9192 50.902 4.98131C51.1444 5.03076 51.3512 5.20103 51.4576 5.42299L59.9189 23.0287C60.0135 23.2252 60.0251 23.4511 59.9507 23.6558V23.6558ZM2.09908 22.5693H16.4429L9.27095 7.64627L2.09908 22.5693ZM16.5089 24.1909H2.03286C3.53907 27.3062 6.2815 29.2641 9.27095 29.2641C12.2602 29.2641 15.0025 27.3062 16.5089 24.1909ZM29.993 37.5026C25.2511 37.5026 20.9228 40.0171 18.6347 44.0047H41.351C39.0632 40.0171 34.7351 37.5026 29.993 37.5026ZM33.2106 5.77443C33.2106 4.00021 31.7674 2.55682 29.993 2.55682C28.2188 2.55682 26.7754 4.00033 26.7754 5.77443C26.7754 7.54853 28.2189 8.99205 29.993 8.99205C31.7674 8.99205 33.2106 7.54853 33.2106 5.77443ZM50.7271 7.64627L43.5554 22.5693H57.8994L50.7271 7.64627ZM57.9653 24.1909H43.4893C44.9957 27.3062 47.7379 29.2641 50.7271 29.2641C53.7163 29.2641 56.4588 27.3062 57.9653 24.1909Z" fill="none" stroke="#FF4B1B" stroke-width="1px"/>
</svg>
