<svg width="60" height="60" viewBox="0 0 60 60" fill="none" xmlns="http://www.w3.org/2000/svg" stroke="#FF4B1B">
<g clip-path="url(#clip0_11_204)">
<path d="M9.00211 40.3579H0.81082C0.36293 40.3579 0 40.7208 0 41.1687V59.1895C0 59.6374 0.36293 60.0003 0.81082 60.0003H9.00211C9.45 60.0003 9.81293 59.6374 9.81293 59.1895V41.1687C9.81281 40.7208 9.45 40.3579 9.00211 40.3579ZM8.19129 58.3786H1.62164V41.9795H8.19129V58.3786Z" fill="none"/>
<path d="M25.7314 23.9072H17.5401C17.0922 23.9072 16.7292 24.2702 16.7292 24.718V59.1893C16.7292 59.6372 17.0922 60.0002 17.5401 60.0002H25.7314C26.1792 60.0002 26.5422 59.6372 26.5422 59.1893V24.718C26.5422 24.2702 26.1792 23.9072 25.7314 23.9072V23.9072ZM24.9205 58.3785H18.3509V25.5289H24.9205V58.3785Z" fill="none"/>
<path d="M42.4604 30.0513H34.2691C33.8212 30.0513 33.4583 30.4142 33.4583 30.8621V59.1892C33.4583 59.6371 33.8212 60.0001 34.2691 60.0001H42.4604C42.9083 60.0001 43.2712 59.6371 43.2712 59.1892V30.8621C43.2712 30.4142 42.9083 30.0513 42.4604 30.0513ZM41.6496 58.3784H35.08V31.6729H41.6496V58.3784Z" fill="none"/>
<path d="M59.1892 14.4863H50.9985C50.5506 14.4863 50.1877 14.8493 50.1877 15.2971V59.1889C50.1877 59.6368 50.5506 59.9997 50.9985 59.9997H59.1892C59.6371 59.9997 60 59.6368 60 59.1889V15.2971C60 14.8493 59.6371 14.4863 59.1892 14.4863V14.4863ZM58.3784 58.3781H51.8093V16.108H58.3784V58.3781Z" fill="none"/>
<path d="M4.80577 27.31C4.9955 27.31 5.18581 27.2437 5.33968 27.1091L22.5916 11.9985L37.2899 17.5607C37.5626 17.6636 37.8695 17.6127 38.0946 17.4264L55.5707 2.9243L54.6817 7.27793C54.5922 7.7168 54.8752 8.145 55.3138 8.23465C55.3687 8.24578 55.423 8.25129 55.4769 8.25129C55.8544 8.25106 56.1923 7.98633 56.2707 7.60254L57.6207 0.990938C57.6692 0.752578 57.6085 0.505312 57.4549 0.316523C57.3016 0.128086 57.0714 0.0185156 56.8283 0.0176953L50.08 0C49.6576 0.00761719 49.2687 0.361055 49.2671 0.808711C49.266 1.25637 49.6279 1.62035 50.0758 1.62164L54.5865 1.63359L37.4224 15.877L22.7104 10.3096C22.4307 10.2035 22.1147 10.2605 21.8892 10.4579L4.27128 25.8892C3.93448 26.1843 3.9005 26.6966 4.19557 27.0334C4.356 27.2162 4.58042 27.31 4.80577 27.31V27.31Z" fill="none"/>
</g>
<defs>
<clipPath id="clip0_11_204">
<rect width="60" height="60" fill="white"/>
</clipPath>
</defs>
</svg>
