<svg width="60" height="56" viewBox="0 0 60 56" fill="none" xmlns="http://www.w3.org/2000/svg">
<path d="M22.4883 30.7021C22.4883 31.2199 22.0685 31.6396 21.5508 31.6396C21.033 31.6396 20.6133 31.2199 20.6133 30.7021C20.6133 28.2098 21.5938 25.8567 23.3742 24.0764C25.1546 22.2961 27.5077 21.3154 30 21.3154C30.5177 21.3154 30.9375 21.7352 30.9375 22.2529C30.9375 22.7707 30.5177 23.1904 30 23.1904C25.858 23.1904 22.4883 26.5602 22.4883 30.7021ZM27.3901 8.55547V3.31203C27.3901 1.87297 28.5609 0.702148 30 0.702148C31.4391 0.702148 32.6099 1.87297 32.6099 3.31203V8.55547C32.6099 9.99453 31.4391 11.1654 30 11.1654C28.5609 11.1654 27.3901 9.99453 27.3901 8.55547V8.55547ZM29.2651 8.55547C29.2651 8.9607 29.5948 9.29035 30 9.29035C30.4052 9.29035 30.7349 8.9607 30.7349 8.55547V3.31203C30.7349 2.9068 30.4052 2.57715 30 2.57715C29.5948 2.57715 29.2651 2.9068 29.2651 3.31203V8.55547ZM43.4614 17.2406C42.9698 16.749 42.699 16.0936 42.699 15.3951C42.699 14.6966 42.9698 14.0411 43.4614 13.5495L47.1691 9.84184C47.6607 9.35023 48.3163 9.07941 49.0147 9.07941C49.7132 9.07941 50.3686 9.35023 50.8603 9.84195C51.878 10.8596 51.878 12.5154 50.8603 13.533L47.1527 17.2406C46.644 17.7493 45.9755 18.0037 45.3071 18.0038C44.6386 18.0038 43.9703 17.7494 43.4614 17.2406V17.2406ZM44.574 15.3951C44.574 15.5927 44.6497 15.7773 44.7872 15.9147C45.0737 16.2012 45.5401 16.2012 45.8266 15.9147L49.5342 12.2071C49.8207 11.9206 49.8207 11.4543 49.5342 11.1678C49.3966 11.0302 49.2121 10.9545 49.0145 10.9545C48.8168 10.9545 48.6323 11.0302 48.4948 11.1678L44.7871 14.8755C44.6497 15.013 44.574 15.1975 44.574 15.3951ZM60 30.7021C60 32.1412 58.8292 33.312 57.3901 33.312H52.1467C50.7076 33.312 49.5368 32.1412 49.5368 30.7021C49.5368 29.2631 50.7076 28.0923 52.1467 28.0923H57.3901C58.8292 28.0921 60 29.263 60 30.7021ZM58.125 30.7021C58.125 30.2969 57.7954 29.9673 57.3901 29.9673H52.1467C51.7414 29.9673 51.4118 30.2969 51.4118 30.7021C51.4118 31.1074 51.7414 31.437 52.1467 31.437H57.3901C57.7954 31.437 58.125 31.1074 58.125 30.7021V30.7021ZM9.13992 13.5331C8.12227 12.5154 8.12227 10.8597 9.13992 9.84195C9.63152 9.35035 10.287 9.07953 10.9854 9.07953C11.6838 9.07953 12.3393 9.35035 12.831 9.84195L16.5387 13.5496C17.0303 14.0412 17.3011 14.6967 17.3011 15.3952C17.3011 16.0937 17.0303 16.7491 16.5387 17.2407C16.0298 17.7495 15.3615 18.0039 14.6931 18.0039C14.0246 18.0039 13.3563 17.7495 12.8475 17.2407L9.13992 13.5331ZM10.4657 12.2071L14.1732 15.9147C14.4598 16.2012 14.9262 16.2012 15.2127 15.9147C15.3502 15.7773 15.4259 15.5927 15.4259 15.3951C15.4259 15.1974 15.3502 15.0129 15.2127 14.8754L11.505 11.1677C11.3674 11.0301 11.1829 10.9544 10.9853 10.9544C10.7877 10.9544 10.6031 11.0301 10.4657 11.1676C10.1791 11.4545 10.1791 11.9206 10.4657 12.2071V12.2071ZM7.85332 33.312H2.60988C1.17082 33.312 0 32.1412 0 30.7021C0 29.2631 1.17082 28.0923 2.60988 28.0923H7.85332C9.2925 28.0923 10.4633 29.2631 10.4633 30.7021C10.4633 32.1412 9.2925 33.312 7.85332 33.312V33.312ZM2.60988 31.437H7.85332C8.25855 31.437 8.58832 31.1074 8.58832 30.7021C8.58832 30.2969 8.25867 29.9673 7.85332 29.9673H2.60988C2.20465 29.9673 1.875 30.2969 1.875 30.7021C1.875 31.1074 2.20465 31.437 2.60988 31.437ZM52.9055 49.8185V54.3601C52.9055 54.8778 52.4857 55.2976 51.968 55.2976H8.03203C7.5143 55.2976 7.09453 54.8778 7.09453 54.3601V49.8185C7.09453 47.3797 9.07863 45.3957 11.5173 45.3957H14.6988V30.7021C14.6988 22.265 21.5629 15.401 30 15.401C38.4371 15.401 45.3013 22.265 45.3013 30.7021V45.3957H48.4828C50.9215 45.3956 52.9055 47.3797 52.9055 49.8185ZM16.5738 45.3956H25.5244V37.7803C25.5244 35.3123 27.5321 33.3046 30 33.3046C32.4679 33.3046 34.4756 35.3124 34.4756 37.7803V45.3956H43.4262V30.7021C43.4262 23.2989 37.4032 17.276 30 17.276C22.5967 17.276 16.5737 23.2989 16.5737 30.7021V45.3956H16.5738ZM32.6006 37.7803C32.6006 36.3462 31.434 35.1796 30 35.1796C28.566 35.1796 27.3994 36.3462 27.3994 37.7803V45.3956H32.6006V37.7803ZM51.0305 49.8185C51.0305 48.4136 49.8875 47.2707 48.4827 47.2707H11.5173C10.1125 47.2707 8.96953 48.4136 8.96953 49.8185V53.4226H51.0305V49.8185Z" fill="none" stroke="#FF4B1B" stroke-width="1px"/>
</svg>
