<svg width="40" height="40" viewBox="0 0 40 40" fill="none" xmlns="http://www.w3.org/2000/svg">
<circle cx="20" cy="20" r="20" fill="white"/>
<path d="M20 16.8758C18.2797 16.8758 16.8758 18.2797 16.8758 20C16.8758 21.7203 18.2797 23.1242 20 23.1242C21.7203 23.1242 23.1242 21.7203 23.1242 20C23.1242 18.2797 21.7203 16.8758 20 16.8758ZM29.3703 20C29.3703 18.7063 29.382 17.4242 29.3094 16.1328C29.2367 14.6328 28.8945 13.3016 27.7976 12.2047C26.6984 11.1055 25.3695 10.7656 23.8695 10.693C22.5758 10.6203 21.2937 10.632 20.0023 10.632C18.7086 10.632 17.4266 10.6203 16.1351 10.693C14.6351 10.7656 13.3039 11.1078 12.207 12.2047C11.1078 13.3039 10.768 14.6328 10.6953 16.1328C10.6226 17.4266 10.6344 18.7086 10.6344 20C10.6344 21.2914 10.6226 22.5758 10.6953 23.8672C10.768 25.3672 11.1101 26.6985 12.207 27.7953C13.3062 28.8945 14.6351 29.2344 16.1351 29.307C17.4289 29.3797 18.7109 29.368 20.0023 29.368C21.2961 29.368 22.5781 29.3797 23.8695 29.307C25.3695 29.2344 26.7008 28.8922 27.7976 27.7953C28.8969 26.6961 29.2367 25.3672 29.3094 23.8672C29.3844 22.5758 29.3703 21.2938 29.3703 20ZM20 24.807C17.3398 24.807 15.193 22.6602 15.193 20C15.193 17.3399 17.3398 15.193 20 15.193C22.6601 15.193 24.807 17.3399 24.807 20C24.807 22.6602 22.6601 24.807 20 24.807ZM25.0039 16.1188C24.3828 16.1188 23.8812 15.6172 23.8812 14.9961C23.8812 14.375 24.3828 13.8735 25.0039 13.8735C25.625 13.8735 26.1266 14.375 26.1266 14.9961C26.1267 15.1436 26.0978 15.2897 26.0415 15.4259C25.9851 15.5622 25.9024 15.6861 25.7981 15.7904C25.6939 15.8946 25.57 15.9773 25.4337 16.0337C25.2974 16.09 25.1514 16.1189 25.0039 16.1188Z" fill="#06042F"/>
</svg>
