<svg width="80" height="76" viewBox="0 0 80 76" fill="none" xmlns="http://www.w3.org/2000/svg">
<path d="M65.1753 45.6187C60.1459 45.6187 55.6942 48.1368 53.0127 51.9779L46.5645 48.2551C46.8277 47.5214 46.972 46.7315 46.972 45.9082C46.972 42.4906 44.4997 39.6415 41.25 39.0506V30.3282C48.8416 29.6914 54.8247 23.31 54.8247 15.5567C54.8247 7.38246 48.1744 0.731995 40.0002 0.731995C31.8258 0.731995 25.1755 7.38246 25.1755 15.5567C25.1755 23.31 31.1586 29.6912 38.7502 30.3281V39.0504C35.5006 39.6415 33.0281 42.4904 33.0281 45.9081C33.0281 46.7312 33.1725 47.5211 33.4356 48.255L26.9873 51.9778C24.3058 48.1367 19.8541 45.6186 14.8247 45.6186C6.65031 45.6187 0 52.269 0 60.4434C0 68.6178 6.65031 75.2681 14.8247 75.2681C22.9989 75.2681 29.6492 68.6176 29.6492 60.4434C29.6492 58.1909 29.1434 56.0546 28.2406 54.1409L34.6889 50.4181C35.9688 51.9231 37.8741 52.8804 39.9998 52.8804C42.1256 52.8804 44.0309 51.9231 45.3108 50.4181L51.7591 54.1409C50.8564 56.0548 50.3505 58.1909 50.3505 60.4434C50.3505 68.6176 57.0008 75.2681 65.175 75.2681C73.3494 75.2681 79.9997 68.6176 79.9997 60.4434C79.9997 52.2692 73.3497 45.6187 65.1753 45.6187V45.6187ZM6.73422 69.7289C7.44453 65.8536 10.818 63.0023 14.8247 63.0023C18.8314 63.0023 22.2047 65.8534 22.9152 69.7287C20.7484 71.619 17.9191 72.7679 14.8247 72.7679C11.7303 72.7681 8.90094 71.6192 6.73422 69.7289V69.7289ZM14.8247 60.5025C12.8711 60.5025 11.2819 58.9131 11.2819 56.9597C11.2819 55.0061 12.8711 53.4167 14.8247 53.4167C16.7783 53.4167 18.3677 55.0061 18.3677 56.9597C18.3677 58.9131 16.7783 60.5025 14.8247 60.5025ZM24.8994 67.5292C23.8708 64.7125 21.7094 62.4789 18.9839 61.3371C20.1428 60.2354 20.8677 58.6811 20.8677 56.9597C20.8677 53.6276 18.1567 50.9167 14.8247 50.9167C11.4927 50.9167 8.78187 53.6276 8.78187 56.9597C8.78187 58.6811 9.50656 60.2354 10.6655 61.337C7.94 62.4789 5.77844 64.7125 4.75 67.5292C3.33484 65.5231 2.5 63.0795 2.5 60.4432C2.5 53.6475 8.02875 48.1186 14.8247 48.1186C21.6205 48.1186 27.1492 53.6475 27.1492 60.4432C27.1492 63.0795 26.3145 65.5229 24.8994 67.5292V67.5292ZM40 15.6159C38.0464 15.6159 36.4572 14.0265 36.4572 12.0731C36.4572 10.1195 38.0464 8.53012 40 8.53012C41.9536 8.53012 43.543 10.1195 43.543 12.0731C43.543 14.0265 41.9536 15.6159 40 15.6159ZM48.0905 24.8425C45.9237 26.7328 43.0944 27.8817 40 27.8817C36.9056 27.8817 34.0762 26.7328 31.9095 24.8426C32.6198 20.9673 35.9933 18.1161 40 18.1161C44.0067 18.1159 47.3802 20.967 48.0905 24.8425V24.8425ZM40 3.23215C46.7958 3.23215 52.3245 8.76106 52.3245 15.5568C52.3245 18.1931 51.4898 20.6365 50.0747 22.6426C49.0462 19.8259 46.8847 17.5923 44.1594 16.4504C45.3183 15.3487 46.0431 13.7943 46.0431 12.0729C46.0431 8.7409 43.3322 6.02996 40.0002 6.02996C36.6681 6.02996 33.9573 8.7409 33.9573 12.0729C33.9573 13.7943 34.682 15.3487 35.8409 16.4503C33.1155 17.5922 30.9539 19.8257 29.9255 22.6425C28.5103 20.6364 27.6755 18.1928 27.6755 15.5565C27.6753 8.76106 33.2041 3.23215 40 3.23215V3.23215ZM40 50.3803C37.5341 50.3803 35.528 48.3742 35.528 45.9082C35.528 43.4423 37.5341 41.4362 40 41.4362C42.4658 41.4362 44.472 43.4423 44.472 45.9082C44.472 48.3742 42.4659 50.3803 40 50.3803V50.3803ZM65.1753 48.1187C71.9713 48.1187 77.5 53.6476 77.5 60.4434C77.5 63.0796 76.6653 65.5231 75.2502 67.5292C74.2217 64.7125 72.0602 62.4789 69.3347 61.3371C70.4936 60.2354 71.2183 58.6811 71.2183 56.9597C71.2183 53.6276 68.5075 50.9167 65.1755 50.9167C61.8434 50.9167 59.1325 53.6276 59.1325 56.9597C59.1325 58.6811 59.8572 60.2354 61.0161 61.337C58.2906 62.4787 56.1291 64.7125 55.1006 67.5292C53.6855 65.5231 52.8508 63.0795 52.8508 60.4434C52.8508 53.6476 58.3795 48.1187 65.1753 48.1187V48.1187ZM65.1755 60.5025C63.2219 60.5025 61.6325 58.9131 61.6325 56.9597C61.6325 55.0061 63.2219 53.4167 65.1755 53.4167C67.1291 53.4167 68.7183 55.0061 68.7183 56.9597C68.7183 58.9131 67.1291 60.5025 65.1755 60.5025ZM57.0848 69.7289C57.7952 65.8536 61.1686 63.0025 65.1753 63.0025C69.182 63.0025 72.5555 65.8536 73.2658 69.7289C71.0991 71.6192 68.2697 72.7681 65.1753 72.7681C62.0809 72.7681 59.2516 71.6192 57.0848 69.7289Z" fill="none" stroke="#FF4B1B" stroke-width="1.5px"/>
</svg>
