<svg width="80" height="78" viewBox="0 0 80 78" fill="none" xmlns="http://www.w3.org/2000/svg">
<path d="M78.75 71.6055H74.9823V63.0501C78.0631 60.2471 80 56.2077 80 51.7244C80 47.241 78.0631 43.2015 74.9823 40.3985V23.4399C74.9823 22.7496 74.4227 22.1899 73.7323 22.1899H63.4644C62.7741 22.1899 62.2144 22.7496 62.2144 23.4399V36.6124C59.9012 36.9896 57.7608 37.8866 55.9169 39.1798V33.1346C55.9169 32.4443 55.3572 31.8846 54.6669 31.8846H44.3991C43.7087 31.8846 43.1491 32.4443 43.1491 33.1346V71.6055H36.8513V43.9115C36.8513 43.2212 36.2916 42.6615 35.6013 42.6615H25.3333C24.643 42.6615 24.0833 43.2212 24.0833 43.9115V71.6055H17.7852V54.2321C17.7852 53.5418 17.2255 52.9821 16.5352 52.9821H6.2675C5.57719 52.9821 5.0175 53.5418 5.0175 54.2321V71.6055H1.25C0.559687 71.6055 0 72.1652 0 72.8555V76.7326C0 77.4229 0.559687 77.9826 1.25 77.9826H78.75C79.4403 77.9826 80 77.4229 80 76.7326V72.8555C80 72.1652 79.4403 71.6055 78.75 71.6055V71.6055ZM72.4823 71.6055H64.7144V67.0366C67.5489 67.0318 70.2047 66.2521 72.4823 64.8994V71.6055ZM55.9169 64.2688C57.7608 65.5619 59.9012 66.4588 62.2144 66.8362V71.6055H55.9169V64.2688ZM77.5 51.7244C77.5 58.7893 71.7523 64.5369 64.6875 64.5369C57.6227 64.5369 51.875 58.7893 51.875 51.7244C51.875 44.6594 57.6227 38.9118 64.6875 38.9118C71.7523 38.9118 77.5 44.6594 77.5 51.7244ZM72.4823 24.6899V38.5493C70.2047 37.1966 67.5489 36.4169 64.7144 36.4121V24.6899H72.4823ZM45.6491 34.3846H53.4169V41.3702C50.9088 44.0982 49.375 47.7354 49.375 51.7244C49.375 55.7135 50.9088 59.3505 53.4169 62.0785V71.6057H45.6491V34.3846ZM26.5834 45.1615H34.3514V71.6055H26.5834V45.1615ZM7.5175 55.4819H15.2853V71.6054H7.5175V55.4819ZM77.5 75.4826H2.5V74.1055H77.5V75.4826ZM6.98719 35.5407C10.3023 36.4949 13.7992 36.9644 17.3781 36.9644C24.9875 36.9644 32.9637 34.8402 40.3244 30.734C47.1945 26.9013 52.9247 21.6746 56.9684 15.5659L60.3197 17.8135C60.723 18.0838 61.2467 18.0963 61.6619 17.8454C62.0775 17.5946 62.3103 17.1257 62.2589 16.6429L60.607 1.13508C60.5663 0.753359 60.3523 0.411172 60.0267 0.207578C59.7011 0.0039845 59.3 -0.0388281 58.9388 0.0921094L44.9903 5.13758C44.5473 5.29773 44.232 5.69352 44.1748 6.16102C44.1177 6.62867 44.328 7.08883 44.7192 7.35117L48.2391 9.71164C43.9388 16.1988 36.2142 23.4095 29.4338 27.1921C22.3213 31.1599 15.2106 33.091 7.70578 33.091C7.58531 33.091 7.46359 33.0905 7.34297 33.0894C7.33953 33.0894 7.33594 33.0894 7.3325 33.0894C6.71219 33.0894 6.185 33.5448 6.09563 34.1598C6.00594 34.7782 6.38672 35.368 6.98719 35.5407V35.5407ZM30.652 29.3754C38.1175 25.2107 46.6819 17.0657 51.0161 10.0085C51.3672 9.4368 51.2042 8.68992 50.6472 8.31617L48.1614 6.64914L58.2902 2.98539L59.4897 14.2465L57.3008 12.7784C57.0184 12.5891 56.6719 12.523 56.3403 12.5948C56.0086 12.6665 55.7202 12.8702 55.5417 13.1588C51.6952 19.3759 46.012 24.6984 39.1066 28.5507C32.2183 32.3935 24.7834 34.4085 17.6939 34.4654C22.0698 33.4574 26.3639 31.7677 30.652 29.3754V29.3754ZM71.1548 44.1934C71.1505 44.1934 71.1458 44.1934 71.1414 44.1935C70.2511 44.1968 69.4161 44.5471 68.7903 45.1791L62.8363 51.1926L60.5823 48.9385C59.2816 47.6377 57.1653 47.6384 55.8648 48.9385C54.5644 50.2391 54.5644 52.3555 55.8648 53.6562L60.4866 58.2777C61.1369 58.9279 61.9911 59.253 62.8453 59.253C63.6995 59.253 64.5537 58.9279 65.2041 58.2776C66.955 56.5265 68.7213 54.7351 70.4291 53.0027C71.4588 51.9584 72.4884 50.9141 73.5205 49.8724C74.8123 48.5687 74.8053 46.456 73.505 45.163C72.8758 44.5374 72.0417 44.1934 71.1548 44.1934V44.1934ZM71.7445 48.1129C70.7109 49.1562 69.6797 50.2019 68.6487 51.2477C66.9439 52.9769 65.1809 54.7652 63.4361 56.5101C63.1105 56.8363 62.58 56.836 62.2544 56.5101L57.6328 51.8885C57.3069 51.5627 57.3069 51.0324 57.6328 50.7066C57.7956 50.5437 58.0097 50.4623 58.2237 50.4623C58.4378 50.4623 58.6517 50.5437 58.8147 50.7065L61.9567 53.8487C62.1913 54.0832 62.5091 54.2149 62.8406 54.2149H62.8438C63.1764 54.2141 63.495 54.0809 63.7289 53.8444L70.567 46.9382C70.7222 46.7813 70.9297 46.6944 71.1513 46.6937H71.1545C71.3763 46.6937 71.5848 46.7798 71.7422 46.9362C72.0667 47.2585 72.0677 47.7866 71.7445 48.1129V48.1129Z" fill="none" stroke="#FF4B1B" stroke-width="1.5px"/>
</svg>
