<svg width="80" height="72" viewBox="0 0 80 72" fill="none" xmlns="http://www.w3.org/2000/svg">
<path d="M44.0884 25.5474C49.9503 29.0479 56.3609 31.0988 62.7103 31.5152L62.485 34.8652C62.4525 35.3497 62.7033 35.8091 63.1284 36.0436C63.3172 36.1477 63.525 36.1991 63.732 36.1991C63.9917 36.1991 64.25 36.1183 64.4683 35.9593L75.4586 27.9508C75.7689 27.7247 75.9581 27.3683 75.9717 26.9846C75.9852 26.6007 75.8216 26.2321 75.5278 25.9846L65.6367 17.6514C65.2766 17.348 64.7764 17.2727 64.3425 17.4569C63.9089 17.6411 63.6158 18.0535 63.5841 18.5235L63.3467 22.0514C56.6184 21.6021 47.9269 18.9368 42.1791 15.5044C36.0084 11.8196 31.4202 7.22317 28.152 1.4527C27.8441 0.908947 27.1819 0.675822 26.6016 0.907541C26.0211 1.13895 25.7006 1.76348 25.8513 2.36988C28.1272 11.5375 34.7744 19.9854 44.0884 25.5474V25.5474ZM40.8975 17.6511C47.3181 21.4852 57.235 24.411 64.4778 24.6077C65.1419 24.6233 65.7139 24.1114 65.7589 23.4421L65.9128 21.1533L72.6977 26.8694L65.1589 32.3627L65.2902 30.4118C65.313 30.073 65.197 29.7396 64.9689 29.4882C64.7408 29.2368 64.4203 29.0888 64.0809 29.0785C57.7363 28.885 51.2659 26.9218 45.37 23.4008C39.9566 20.1682 35.5067 15.915 32.4 11.1221C34.8494 13.5588 37.6708 15.7243 40.8975 17.6511V17.6511ZM78.75 63.2068H75.6249V48.2182C75.6249 47.5279 75.0652 46.9682 74.3749 46.9682H65.4219C64.7316 46.9682 64.1719 47.5279 64.1719 48.2182V63.2068H59.0005V39.2191C59.0005 38.5288 58.4408 37.9691 57.7505 37.9691H48.7974C48.107 37.9691 47.5474 38.5288 47.5474 39.2191V63.2068H42.3759V29.8222C42.3759 29.1319 41.8163 28.5722 41.1259 28.5722H32.173C31.4827 28.5722 30.923 29.1319 30.923 29.8222V36.881C29.9456 35.7136 28.8728 34.488 27.6975 33.1949C28.8466 32.5014 29.6167 31.241 29.6167 29.8039C29.6167 27.9029 28.2694 26.3111 26.4795 25.9322L28.8655 23.5463C30.4377 21.9739 30.4377 19.4155 28.8653 17.843C27.5345 16.5125 25.4181 16.2849 23.8334 17.3022C23.7709 17.3425 23.735 17.3455 23.6669 17.3174C23.5981 17.2889 23.575 17.2613 23.5592 17.1885C23.1575 15.3485 21.5002 14.013 19.6183 14.013C17.7369 14.0133 16.0798 15.3488 15.6781 17.1886C15.6622 17.2613 15.6391 17.2889 15.5708 17.3172C15.502 17.3457 15.4659 17.3424 15.4036 17.3022C13.8186 16.285 11.7025 16.5122 10.3716 17.8432C9.61203 18.6027 9.19375 19.6154 9.19375 20.6947C9.19375 21.7741 9.61203 22.7868 10.3716 23.5463L12.7575 25.9321C10.9677 26.311 9.62016 27.9027 9.62016 29.8038C9.62016 31.241 10.3903 32.5014 11.5394 33.1949C7.27312 37.8886 4.36047 41.691 2.43953 45.0635C-0.740781 50.6475 -0.805313 56.8191 2.26234 61.9955C5.63375 67.6843 12.1256 71.181 19.27 71.1808H19.967C23.2523 71.1807 26.3989 70.4394 29.1684 69.0874H78.75C79.4403 69.0874 80 68.5277 80 67.8374V64.4566C80 63.7664 79.4403 63.2068 78.75 63.2068V63.2068ZM66.6719 49.4682H73.1249V63.2068H66.6719V49.4682ZM50.0475 40.4691H56.5006V63.2068H50.0475V40.4691ZM33.4231 31.0722H39.8761V63.2068H36.1839C36.463 62.8146 36.7281 62.4118 36.9747 61.9957C40.0423 56.8191 39.9777 50.6477 36.7973 45.0636C35.9011 43.4899 34.7878 41.8222 33.423 40.0144V31.0722H33.4231ZM11.6938 20.6947C11.6938 20.2832 11.852 19.8983 12.1394 19.611C12.6452 19.105 13.4498 19.0189 14.0534 19.4061C14.8027 19.8869 15.7044 19.9674 16.5273 19.6268C17.3502 19.286 17.9308 18.5914 18.1206 17.7216C18.2736 17.0213 18.9036 16.513 19.6186 16.5129C20.3338 16.5129 20.9639 17.0211 21.1167 17.7214C21.3066 18.5914 21.8872 19.2858 22.7102 19.6269C23.5327 19.9677 24.4344 19.8871 25.1841 19.406C25.787 19.0189 26.5919 19.105 27.098 19.611C27.6955 20.2086 27.6955 21.181 27.098 21.7786L23.0305 25.8461H16.2072L12.1395 21.7786C11.852 21.4913 11.6938 21.1064 11.6938 20.6947V20.6947ZM13.5781 28.3461H25.6589C26.4628 28.3461 27.1169 29.0002 27.1169 29.8041C27.1169 30.608 26.4628 31.2619 25.6589 31.2619H13.5781C12.7742 31.2619 12.1202 30.6079 12.1202 29.8039C12.1202 29 12.7742 28.3461 13.5781 28.3461V28.3461ZM19.5975 68.6783C13.2064 68.7819 7.38563 65.7372 4.41313 60.7211C1.77781 56.2744 1.84844 51.1532 4.61203 46.3008C6.58797 42.8316 9.70875 38.8382 14.4127 33.7618H24.8244C29.5283 38.838 32.6491 42.8314 34.625 46.3008C37.3886 51.1532 37.4592 56.2744 34.8239 60.7211C31.9022 65.6514 26.2317 68.6813 19.9673 68.681C19.8586 68.681 19.6116 68.678 19.5975 68.6783V68.6783ZM77.5 66.5875H33.0445C33.383 66.3057 33.7102 66.0116 34.0266 65.7068H77.5V66.5875ZM25.4825 54.4994C25.6303 55.7177 25.3025 56.8311 24.5341 57.7196C23.7003 58.6838 22.3547 59.3475 20.8169 59.58V60.4919C20.8169 61.1822 20.2572 61.7419 19.5669 61.7419C18.8766 61.7419 18.3169 61.1822 18.3169 60.4919V59.5604C15.9866 59.1482 14.1903 57.6169 13.6536 55.4638C13.4866 54.7939 13.8942 54.1155 14.5641 53.9485C15.2342 53.7824 15.9123 54.1891 16.0794 54.8589C16.5006 56.5485 18.1781 57.1549 19.5584 57.1708C19.5703 57.171 19.5828 57.171 19.5952 57.1711C19.6402 57.1711 19.6845 57.1708 19.7286 57.1697C20.9541 57.1405 22.0981 56.7144 22.6433 56.0843C22.9505 55.7291 23.0641 55.3211 23.0009 54.8005C22.8967 53.943 22.3909 52.8954 19.378 52.4008C15.1709 51.7097 14.1894 49.536 14.1067 47.8341C13.9923 45.4786 15.6292 43.5072 18.1798 42.9286C18.2253 42.9183 18.2709 42.9085 18.317 42.8993V41.948C18.317 41.2577 18.8767 40.698 19.567 40.698C20.2573 40.698 20.817 41.2577 20.817 41.948V42.8883C22.5306 43.2168 24.1847 44.2641 25.0331 46.285C25.3003 46.9214 25.0011 47.6543 24.3645 47.9214C23.7278 48.1886 22.9953 47.8893 22.7281 47.2529C22.1372 45.8454 20.8688 45.2721 19.64 45.2671C19.4141 45.265 18.9875 45.3091 18.7327 45.3669C17.6602 45.6102 16.5377 46.3541 16.6038 47.713C16.6264 48.1814 16.6869 49.4255 19.783 49.9339C21.0813 50.1471 25.0328 50.7957 25.4825 54.4994V54.4994Z" fill="none" stroke="#FF4B1B" stroke-width="1.5px"/>
</svg>
