<svg width="80" height="80" viewBox="0 0 80 80" fill="none" xmlns="http://www.w3.org/2000/svg">
<path d="M79.9491 13.8787C79.8197 13.4396 79.4608 13.1066 79.0134 13.0101L69.1539 10.8852L67.0289 1.0257C66.9325 0.578355 66.5992 0.219449 66.1602 0.090074C65.7217 -0.0394573 65.2466 0.0816365 64.923 0.40523L52.7214 12.6068C47.5434 9.82601 41.7147 8.35945 35.8003 8.35945C26.2377 8.35945 17.2473 12.0834 10.4855 18.8451C3.72359 25.6068 0 34.5974 0 44.1601C0 53.7227 3.72391 62.713 10.4856 69.4749C17.2473 76.2368 26.2377 79.9605 35.8005 79.9605C45.3633 79.9605 54.3534 76.2366 61.1153 69.4749C67.8772 62.7132 71.6009 53.7229 71.6009 44.1601C71.6009 38.2859 70.1534 32.4923 67.4091 27.3412L79.6341 15.1162C79.9575 14.7924 80.0784 14.3177 79.9491 13.8787V13.8787ZM35.8005 77.4605C17.4384 77.4605 2.5 62.5221 2.5 44.1601C2.5 25.798 17.4384 10.8596 35.8005 10.8596C41.0753 10.8596 46.2763 12.1126 50.9395 14.4948C50.8236 14.7399 50.7872 15.0191 50.8459 15.2919L52.4281 22.6338L49.7519 25.3101C45.7328 22.3354 40.8227 20.7079 35.8003 20.7079C22.8686 20.7079 12.348 31.2285 12.348 44.1602C12.348 57.092 22.8688 67.6124 35.8005 67.6124C48.7322 67.6124 59.253 57.0918 59.253 44.1601C59.253 39.1791 57.6489 34.3009 54.717 30.2996L57.4056 27.611L64.7475 29.1932C64.8352 29.2121 64.9233 29.2213 65.0109 29.2213C65.1836 29.2213 65.3534 29.1846 65.5105 29.116C67.8611 33.7544 69.1009 38.9215 69.1009 44.1599C69.1009 62.5221 54.1625 77.4605 35.8005 77.4605V77.4605ZM36.7881 44.6927C36.3909 45.0902 35.7439 45.0905 35.3464 44.6927C34.9489 44.2952 34.9491 43.6485 35.3466 43.251L62.8748 15.7224C63.2722 15.3249 63.9191 15.3244 64.3167 15.7223C64.7142 16.1199 64.7142 16.7668 64.3167 17.1641L36.7881 44.6927ZM33.5786 46.4605C34.265 47.1468 35.1661 47.4898 36.0673 47.4898C36.9687 47.4898 37.8698 47.1468 38.5561 46.4607L43.8631 41.1537C44.2192 42.1095 44.4048 43.1268 44.4048 44.1601C44.4048 48.9045 40.545 52.7643 35.8006 52.7643C31.0562 52.7643 27.1964 48.9045 27.1964 44.1601C27.1964 39.4157 31.0562 35.5559 35.8006 35.5559C36.8758 35.5559 37.9323 35.7565 38.9209 36.1413L33.5789 41.4834C32.2067 42.8554 32.2066 45.0882 33.5786 46.4605V46.4605ZM40.8111 34.2509C39.2639 33.4676 37.5509 33.0559 35.8005 33.0559C29.6775 33.0559 24.6962 38.0373 24.6962 44.1601C24.6962 50.2829 29.6777 55.2643 35.8005 55.2643C41.9233 55.2643 46.9047 50.2829 46.9047 44.1601C46.9047 42.4504 46.5113 40.7734 45.7625 39.2541L52.9262 32.0904C55.4022 35.6046 56.753 39.839 56.753 44.1601C56.753 55.7132 47.3538 65.1124 35.8005 65.1124C24.2472 65.1124 14.8481 55.7132 14.8481 44.1601C14.8481 32.607 24.2473 23.2077 35.8005 23.2077C40.1625 23.2077 44.43 24.5813 47.9628 27.0991L40.8111 34.2509ZM64.6084 26.606L59.5095 25.5071L66.0845 18.9321C67.4566 17.5599 67.4566 15.3273 66.0845 13.9548C64.7125 12.583 62.4798 12.583 61.1072 13.9548L54.5322 20.5298L53.4333 15.4309L65.0686 3.79554L66.8802 12.2007C66.9836 12.6807 67.3587 13.0559 67.8387 13.1593L76.2439 14.9707L64.6084 26.606Z" fill="none" stroke="#FF4B1B" stroke-width="1.5px"/>
</svg>
