<svg width="80" height="76" viewBox="0 0 80 76" fill="none" xmlns="http://www.w3.org/2000/svg">
<path d="M79.77 37.2777L70.2466 23.8285C70.0122 23.4976 69.6317 23.3009 69.2264 23.3009C68.8211 23.3009 68.4406 23.4976 68.2064 23.8285L58.6825 37.2777C58.4125 37.659 58.3778 38.1593 58.5925 38.5743C58.8072 38.9893 59.2353 39.2501 59.7027 39.2501H63.548C62.8942 52.9041 51.5809 63.8102 37.768 63.8102C23.5363 63.8102 11.9578 52.2318 11.9578 38.0001C11.9578 23.7684 23.5363 12.1899 37.768 12.1899C41.1053 12.1899 44.3547 12.8187 47.4256 14.0587C47.8908 14.2468 48.4228 14.1381 48.7775 13.7835L55.8809 6.68009C56.1605 6.4004 56.2914 6.00493 56.2336 5.61352C56.1758 5.22227 55.9363 4.88134 55.5877 4.69462C50.1427 1.77524 43.9808 0.232117 37.768 0.232117C27.6798 0.232117 18.1953 4.16071 11.062 11.294C3.92859 18.4276 0 27.912 0 38.0001C0 48.0882 3.92859 57.5726 11.062 64.706C18.1953 71.8395 27.6798 75.7679 37.768 75.7679C47.8559 75.7679 57.3405 71.8393 64.4738 64.706C71.3119 57.8677 75.2052 48.8699 75.5156 39.2501H78.75C79.2174 39.2501 79.6455 38.9895 79.8602 38.5743C80.0749 38.1593 80.0402 37.6591 79.77 37.2777V37.2777ZM74.2858 36.7501C73.5955 36.7501 73.0358 37.3098 73.0358 38.0001C73.0358 57.4468 57.2147 73.2679 37.768 73.2679C18.3211 73.2679 2.5 57.4468 2.5 38.0001C2.5 18.5534 18.3211 2.73227 37.768 2.73227C43.0009 2.73227 48.1945 3.90415 52.8922 6.13352L47.5852 11.4404C44.4463 10.2785 41.1478 9.69009 37.768 9.69009C22.1578 9.68993 9.45781 22.3899 9.45781 38.0001C9.45781 53.6102 22.1577 66.3102 37.768 66.3102C53.3783 66.3102 66.0778 53.6102 66.0778 38.0001C66.0778 37.3098 65.5181 36.7501 64.8278 36.7501H62.1194L69.2263 26.7138L76.3331 36.7501H74.2858ZM50.7409 24.9554C49.3938 24.9591 48.1286 25.4873 47.1748 26.4465L34.9683 38.8307L28.3652 32.2277C27.4106 31.2732 26.1416 30.7474 24.7914 30.7474C23.4413 30.7474 22.172 31.2732 21.2177 32.2277C20.263 33.1823 19.7372 34.4515 19.7372 35.8016C19.7372 37.1516 20.2628 38.4209 21.2175 39.3756L31.4069 49.5648C32.3922 50.5501 33.6864 51.0426 34.9806 51.0426C36.2748 51.0426 37.5691 50.5499 38.5545 49.5648C42.7091 45.4101 44.8559 43.2124 47.3417 40.6679C49.2395 38.7251 51.202 36.7162 54.3313 33.5557C55.2811 32.6004 55.8022 31.3324 55.7986 29.9851C55.7948 28.6379 55.2667 27.3727 54.3114 26.4231C53.3595 25.4763 52.0972 24.9556 50.7553 24.9556C50.7506 24.9554 50.7458 24.9554 50.7409 24.9554V24.9554ZM53.2986 29.992C53.3005 30.6715 53.0377 31.3109 52.5567 31.7946C49.4197 34.9629 47.3656 37.0654 45.5534 38.9206C43.0731 41.4596 40.9309 43.6524 36.7869 47.7968C35.7909 48.7926 34.1703 48.7926 33.1747 47.7968L22.9855 37.6076C22.503 37.1252 22.2373 36.4837 22.2373 35.8015C22.2373 35.1191 22.503 34.4777 22.9855 33.9954C23.4678 33.5131 24.1092 33.2473 24.7916 33.2473C25.4739 33.2473 26.1152 33.5129 26.5975 33.9954L34.0909 41.4887C34.3266 41.7241 34.6497 41.8576 34.9795 41.8548C35.3127 41.8535 35.6314 41.7195 35.8652 41.4823L48.9517 28.2052C49.4306 27.7235 50.0688 27.4571 50.7483 27.4552H50.7555C51.4322 27.4552 52.0689 27.7179 52.5491 28.1954C53.0305 28.6745 53.2967 29.3124 53.2986 29.992V29.992Z" fill="none" stroke="#FF4B1B" stroke-width="1.5px"/>
</svg>
