<svg width="78" height="80" viewBox="0 0 78 80" fill="none" xmlns="http://www.w3.org/2000/svg">
<path d="M38.9999 29.5088H39.0002C40.3982 29.5086 41.533 28.4142 41.5835 27.017L41.921 17.6713C41.9466 16.9531 41.6965 16.3005 41.198 15.7839C40.6994 15.2667 40.0558 14.9934 39.3376 14.9934H38.6626C37.944 14.9934 37.3005 15.2669 36.8021 15.7839C36.3035 16.3008 36.0535 16.9534 36.0791 17.6717L36.4166 27.0172C36.4671 28.4144 37.6018 29.5088 38.9999 29.5088V29.5088ZM38.5793 17.5469C38.5796 17.5464 38.5843 17.537 38.6016 17.5191C38.6185 17.5016 38.6277 17.4964 38.6276 17.4964C38.6282 17.4962 38.6382 17.4931 38.6627 17.4931H39.3377C39.3616 17.4931 39.3719 17.4961 39.3721 17.4961C39.3727 17.4964 39.3819 17.5016 39.3991 17.5194C39.4158 17.5367 39.4208 17.5459 39.4208 17.5459C39.421 17.5466 39.4238 17.5569 39.4229 17.5812L39.0854 26.9266C39.0838 26.9719 39.0457 27.0086 39.0004 27.0086H39.0002C38.9551 27.0086 38.9169 26.9719 38.9154 26.9267L38.5779 17.5817C38.5766 17.5572 38.5794 17.5469 38.5793 17.5469V17.5469ZM39.0001 30.0619C37.3677 30.0619 36.0397 31.3898 36.0397 33.0222C36.0397 34.6545 37.3677 35.9825 39.0001 35.9825C40.6324 35.9825 41.9604 34.6545 41.9604 33.0222C41.9604 31.3898 40.6324 30.0619 39.0001 30.0619ZM39.0001 33.4825C38.7462 33.4825 38.5397 33.2761 38.5397 33.0222C38.5397 32.7683 38.7462 32.5619 39.0001 32.5619C39.254 32.5619 39.4604 32.7683 39.4604 33.0222C39.4604 33.2761 39.254 33.4825 39.0001 33.4825ZM77.1069 71.2283C76.146 65.7673 72.3097 61.4522 67.3133 59.7119C69.2819 58.2163 70.5562 55.8517 70.5562 53.1942C70.5562 48.6825 66.8857 45.012 62.374 45.012C57.8624 45.012 54.1919 48.6825 54.1919 53.1942C54.1919 55.8516 55.466 58.2161 57.4346 59.7117C55.8746 60.2567 54.4099 61.0612 53.0969 62.1019C52.5918 61.5153 52.0488 60.9567 51.468 60.4316C49.4471 58.6039 47.0754 57.2617 44.5212 56.4684C47.2297 54.6728 49.0204 51.5983 49.0204 48.1122C49.0204 46.5289 48.6504 45.0306 47.9937 43.698C48.3791 43.5072 48.7593 43.3052 49.1318 43.0903L53.0891 45.9556C53.3091 46.115 53.5662 46.1931 53.8218 46.1931C54.1438 46.1931 54.4638 46.0691 54.706 45.827L59.3393 41.1938C59.7733 40.7595 59.828 40.0742 59.4677 39.5769L56.6027 35.6197C57.483 34.0939 58.1566 32.4686 58.6126 30.7703L63.4352 29.9984C64.0416 29.9014 64.4876 29.3783 64.4876 28.7642V22.2116C64.4876 21.5975 64.0416 21.0744 63.4352 20.9773L58.6126 20.2055C58.1565 18.5064 57.4829 16.8812 56.6027 15.3561L59.4677 11.3989C59.828 10.9016 59.7733 10.2162 59.3393 9.78203L54.706 5.14875C54.2715 4.71437 53.586 4.66031 53.089 5.02016L49.1319 7.88516C47.6063 7.00484 45.9813 6.33141 44.2826 5.87531L43.5105 1.0525C43.4135 0.445938 42.8902 0 42.2763 0H35.7238C35.1097 0 34.5866 0.445938 34.4896 1.05234L33.7176 5.875C32.0187 6.33109 30.3935 7.00469 28.8682 7.88484L24.911 5.02C24.4138 4.66 23.7287 4.71422 23.294 5.14859L18.6607 9.78188C18.2266 10.2161 18.1719 10.9014 18.5322 11.3989L21.3972 15.3559C20.5169 16.8817 19.8433 18.507 19.3872 20.2053L14.5647 20.9772C13.9583 21.0742 13.5124 21.5973 13.5124 22.2114V28.7641C13.5124 29.3781 13.9583 29.9012 14.5647 29.9983L19.3874 30.7702C19.8435 32.4692 20.5171 34.0944 21.3972 35.6195L18.5322 39.5767C18.1719 40.0741 18.2266 40.7594 18.6607 41.1936L23.294 45.8269C23.7285 46.2612 24.4138 46.3153 24.911 45.9555L28.8683 43.0902C29.241 43.305 29.6213 43.5072 30.0069 43.698C29.3502 45.0306 28.9801 46.5287 28.9801 48.112C28.9801 51.5981 30.7705 54.6727 33.4791 56.4683C30.9247 57.2614 28.553 58.6037 26.5321 60.4314C25.9513 60.9566 25.4083 61.5152 24.9032 62.1017C23.5902 61.0611 22.1257 60.2566 20.5657 59.7116C22.5343 58.2159 23.8085 55.8514 23.8085 53.1939C23.8085 48.6822 20.138 45.0117 15.6265 45.0117C11.1147 45.0117 7.44428 48.6822 7.44428 53.1939C7.44428 55.8513 8.71834 58.2158 10.6869 59.7114C5.69053 61.4517 1.85412 65.767 0.893186 71.2284C0.787561 71.8295 0.94553 72.4181 1.33819 72.8859C1.73084 73.3538 2.28334 73.6112 2.89397 73.6112H20.5044V74.1142C20.5044 77.3595 23.1446 79.9997 26.3899 79.9997H51.6102C54.8557 79.9997 57.4958 77.3595 57.4958 74.1142V73.6112H75.1062C75.7169 73.6112 76.2694 73.3536 76.6619 72.8858C77.0546 72.4186 77.2127 71.8298 77.1069 71.2283V71.2283ZM56.6919 53.1942C56.6919 50.0611 59.2408 47.512 62.374 47.512C65.5072 47.512 68.0562 50.0609 68.0562 53.1942C68.0562 56.3269 65.508 58.8755 62.3755 58.8763C62.3751 58.8763 62.3744 58.8763 62.3738 58.8763C62.3733 58.8763 62.3729 58.8763 62.3724 58.8763C59.2399 58.8755 56.6919 56.3269 56.6919 53.1942V53.1942ZM29.4755 40.5367C29.0432 40.2627 28.4874 40.2797 28.073 40.5798L24.308 43.3058L21.1821 40.1797L23.9079 36.4147C24.2082 36.0002 24.2252 35.4444 23.9508 35.012C22.853 33.2812 22.0694 31.3909 21.6224 29.3939C21.5105 28.8944 21.1055 28.5136 20.6002 28.4327L16.0121 27.6983V23.2773L20.6002 22.543C21.1055 22.462 21.5107 22.0811 21.6224 21.5817C22.0691 19.5856 22.8526 17.6953 23.951 15.9634C24.2252 15.5313 24.2082 14.9755 23.9079 14.5608L21.1821 10.7959L24.3082 7.66984L28.073 10.3958C28.4877 10.6959 29.0435 10.7128 29.4757 10.4387C31.2065 9.34078 33.0968 8.55734 35.094 8.11031C35.5933 7.99859 35.9743 7.59344 36.0551 7.08812L36.7897 2.5H41.2105L41.9451 7.08828C42.026 7.59359 42.4068 7.99859 42.9062 8.11047C44.9029 8.5575 46.7932 9.34094 48.5244 10.4391C48.9569 10.713 49.5121 10.6962 49.9271 10.3959L53.6919 7.67L56.818 10.7961L54.0921 14.5609C53.7918 14.9755 53.7747 15.5312 54.0491 15.9636C55.1469 17.6944 55.9305 19.5845 56.3776 21.5817C56.4894 22.0813 56.8944 22.462 57.3997 22.543L61.9879 23.2773V27.6983L57.3997 28.4327C56.8944 28.5136 56.4893 28.8945 56.3776 29.3939C55.9308 31.39 55.1474 33.2803 54.049 35.0122C53.7747 35.4444 53.7918 36.0002 54.0921 36.4147L56.8179 40.1797L53.6919 43.3058L49.9269 40.5798C49.5123 40.2797 48.9566 40.2625 48.5243 40.5369C47.9071 40.9283 47.2622 41.2803 46.6008 41.593C45.9502 40.8356 45.1901 40.1753 44.343 39.6392C50.0554 37.4752 54.1282 31.9492 54.1282 25.488C54.1282 17.1463 47.3416 10.3597 39.0001 10.3597C30.6585 10.3597 23.8719 17.1463 23.8719 25.488C23.8719 31.9495 27.9451 37.4756 33.6577 39.6395C32.8105 40.1756 32.0499 40.8356 31.3993 41.5931C30.7379 41.2802 30.0929 40.9283 29.4755 40.5367V40.5367ZM39.0001 38.1161C32.0369 38.1161 26.3719 32.4511 26.3719 25.488C26.3719 18.5247 32.0369 12.8597 39.0001 12.8597C45.9632 12.8597 51.6282 18.5247 51.6282 25.488C51.6282 32.4511 45.9632 38.1161 39.0001 38.1161ZM31.4801 48.1123C31.4801 43.9658 34.8537 40.5923 39.0002 40.5923C43.1468 40.5923 46.5204 43.9658 46.5204 48.1123C46.5204 52.2577 43.149 55.6302 39.0043 55.6323C39.0029 55.6323 39.0013 55.6323 39.0001 55.6323C38.9988 55.6323 38.9974 55.6323 38.996 55.6323C34.8513 55.63 31.4801 52.2575 31.4801 48.1123V48.1123ZM9.94428 53.1942C9.94428 50.0611 12.4932 47.512 15.6265 47.512C18.7596 47.512 21.3085 50.0609 21.3085 53.1942C21.3085 56.3269 18.7602 58.8755 15.6279 58.8763C15.6274 58.8763 15.6268 58.8763 15.6263 58.8763C15.6258 58.8763 15.6254 58.8763 15.6247 58.8763C12.4924 58.8755 9.94428 56.3269 9.94428 53.1942ZM20.6668 71.1116H3.46491C4.72491 65.4378 9.75194 61.3769 15.6249 61.3763H15.6266H15.628C18.4777 61.3766 21.1991 62.3392 23.4016 64.103C22.0257 66.2194 21.091 68.6008 20.6668 71.1116V71.1116ZM54.9958 74.1145C54.9958 75.9813 53.4771 77.5 51.6102 77.5H26.3899C24.5232 77.5 23.0044 75.9813 23.0044 74.1145V72.4295C23.9094 64.2752 30.7726 58.1344 38.996 58.1323C38.9974 58.1323 38.9988 58.1325 39.0002 58.1325C39.0016 58.1325 39.003 58.1323 39.0043 58.1323C47.2276 58.1345 54.0905 64.2752 54.9958 72.4295V74.1145ZM57.3335 71.1116C56.9091 68.6008 55.9743 66.2194 54.5985 64.1031C56.801 62.3394 59.5224 61.3767 62.3723 61.3764H62.3738C62.3738 61.3764 62.3749 61.3764 62.3754 61.3764C68.2482 61.3772 73.2752 65.4383 74.5352 71.1116H57.3335Z" fill="none" stroke="#FF4B1B" stroke-width="1.5px"/>
</svg>
