<svg width="80" height="80" viewBox="0 0 80 80" fill="none" xmlns="http://www.w3.org/2000/svg">
<path d="M78.75 73.6232H74.9823V25.4576C74.9823 24.7672 74.4227 24.2076 73.7323 24.2076H63.4644C62.7741 24.2076 62.2144 24.7672 62.2144 25.4576V73.6232H55.917V35.1522C55.917 34.4619 55.3573 33.9022 54.667 33.9022H44.3992C43.7089 33.9022 43.1492 34.4619 43.1492 35.1522V73.6232H36.8514V45.9291C36.8514 45.2388 36.2917 44.6791 35.6014 44.6791H25.3334C24.6431 44.6791 24.0834 45.2388 24.0834 45.9291V73.6232H17.7855V56.2497C17.7855 55.5594 17.2258 54.9997 16.5355 54.9997H6.26766C5.57734 54.9997 5.01766 55.5594 5.01766 56.2497V73.6232H1.25C0.559687 73.6232 0 74.1829 0 74.8732V78.7502C0 79.4405 0.559687 80.0002 1.25 80.0002H78.75C79.4403 80.0002 80 79.4405 80 78.7502V74.8732C80 74.1827 79.4403 73.6232 78.75 73.6232ZM64.7144 26.7076H72.4823V73.6232H64.7144V26.7076ZM45.6492 36.4022H53.417V73.6232H45.6492V36.4022ZM26.5834 47.1791H34.3514V73.6232H26.5834V47.1791ZM7.51766 57.4997H15.2855V73.6232H7.51766V57.4997ZM77.5 77.5002H2.5V76.1232H77.5V77.5002ZM20.4555 42.0841C20.5336 42.0991 20.6128 42.1068 20.692 42.1068C20.7713 42.1068 20.8505 42.0993 20.9286 42.0841C31.1444 40.1149 38.5592 31.136 38.5592 20.7341V6.84458C38.5592 6.30786 38.2167 5.83114 37.708 5.65989L21.0909 0.0655176C20.8322 -0.0215137 20.552 -0.0215137 20.2933 0.0655176L3.67609 5.65989C3.1675 5.83114 2.82484 6.30786 2.82484 6.84458V20.7343C2.82484 31.136 10.2397 40.1149 20.4555 42.0841V42.0841ZM5.32484 7.7427L20.692 2.56911L36.0592 7.7427V20.7343C36.0592 29.8597 29.6114 37.7477 20.692 39.5822C11.7728 37.7477 5.32484 29.8597 5.32484 20.7343V7.7427ZM14.5609 31.0757L16.6105 29.5918C16.9136 29.7369 17.2241 29.8657 17.5408 29.9775L17.9406 32.4754C18.0377 33.0818 18.5608 33.5277 19.1748 33.5277H22.2092C22.8233 33.5277 23.3464 33.0816 23.4434 32.4752L23.8433 29.9772C24.1598 29.8654 24.4703 29.7366 24.7734 29.5916L26.823 31.0755C27.3203 31.4355 28.0056 31.3811 28.4398 30.9469L30.5855 28.8013C31.0197 28.3671 31.0742 27.6818 30.7141 27.1844L29.2302 25.1349C29.3753 24.8318 29.5041 24.5213 29.6159 24.2047L32.1137 23.8049C32.7202 23.7079 33.1663 23.1847 33.1663 22.5707V19.5363C33.1663 18.9222 32.7202 18.3991 32.1137 18.3021L29.6158 17.9022C29.5039 17.5857 29.3752 17.2752 29.23 16.9721L30.7139 14.9225C31.0741 14.4252 31.0195 13.7399 30.5853 13.3057L28.4397 11.16C28.0055 10.7258 27.3202 10.6713 26.8228 11.0315L24.7733 12.5154C24.4702 12.3702 24.1597 12.2415 23.8431 12.1296L23.4433 9.63177C23.3463 9.02536 22.8231 8.57927 22.2091 8.57927H19.1747C18.5606 8.57927 18.0375 9.0252 17.9405 9.63161L17.5406 12.1294C17.2239 12.2413 16.9134 12.37 16.6103 12.5152L14.5609 11.0313C14.0634 10.6711 13.3781 10.7255 12.9441 11.1599L10.7984 13.3055C10.3642 13.7397 10.3097 14.425 10.6698 14.9225L12.1539 16.9721C12.0088 17.2752 11.88 17.5857 11.7683 17.9022L9.27016 18.3021C8.66391 18.3991 8.21781 18.9222 8.21781 19.5363V22.5707C8.21781 23.1847 8.66391 23.7079 9.27016 23.8049L11.7683 24.2049C11.8802 24.5215 12.0089 24.8318 12.1539 25.1349L10.6698 27.1844C10.3097 27.6818 10.3642 28.3671 10.7984 28.8013L12.9441 30.9469C13.3784 31.3813 14.0636 31.4357 14.5609 31.0757V31.0757ZM10.7175 21.5049V20.6021L12.9333 20.2474C13.4252 20.1686 13.8233 19.8054 13.9467 19.3229C14.1095 18.6863 14.3627 18.076 14.6991 17.5086C14.9531 17.08 14.9284 16.5416 14.6364 16.138L13.3198 14.3197L13.9583 13.6813L15.7764 14.9977C16.18 15.29 16.7187 15.3144 17.1472 15.0602C17.7144 14.7238 18.3247 14.4707 18.9614 14.3079C19.4441 14.1844 19.8073 13.7863 19.8861 13.2944L20.2408 11.079H21.1436L21.4983 13.2944C21.577 13.7863 21.9403 14.1844 22.423 14.3079C23.0592 14.4705 23.6697 14.7236 24.237 15.0602C24.6655 15.3146 25.2041 15.2897 25.6077 14.9977L27.4259 13.6811L28.0642 14.3196L26.7478 16.1379C26.4556 16.5415 26.4311 17.0799 26.6852 17.5085C27.0216 18.0757 27.2747 18.6863 27.4375 19.3229C27.5609 19.8054 27.9591 20.1686 28.4509 20.2474L30.6666 20.6021V21.5049L28.4511 21.8596C27.9592 21.9383 27.5611 22.3016 27.4377 22.7843C27.2748 23.4207 27.0217 24.031 26.6853 24.5985C26.4311 25.0271 26.4556 25.5655 26.7478 25.9691L28.0642 27.7874L27.4259 28.4258L25.6077 27.1093C25.2041 26.8169 24.6653 26.7926 24.237 27.0468C23.6702 27.383 23.0597 27.6361 22.4228 27.799C21.9403 27.9224 21.577 28.3205 21.4983 28.8124L21.1436 31.028H20.2408L19.8861 28.8126C19.8073 28.3207 19.4441 27.9225 18.9614 27.7991C18.3252 27.6363 17.7147 27.3832 17.1472 27.0466C16.7186 26.7925 16.1802 26.8171 15.7766 27.1093L13.9583 28.4257L13.3198 27.7872L14.6364 25.9691C14.9286 25.5655 14.9531 25.0269 14.6991 24.5985C14.3628 24.0315 14.1097 23.4208 13.9466 22.784C13.8231 22.3015 13.425 21.9383 12.9333 21.8596L10.7175 21.5049ZM20.692 26.7871C23.8534 26.7871 26.4256 24.215 26.4256 21.0535C26.4256 17.8921 23.8536 15.32 20.692 15.32C17.5305 15.32 14.9584 17.8921 14.9584 21.0535C14.9584 24.215 17.5306 26.7871 20.692 26.7871ZM20.692 17.8199C22.475 17.8199 23.9256 19.2704 23.9256 21.0533C23.9256 22.8365 22.475 24.2869 20.692 24.2869C18.9091 24.2869 17.4584 22.8363 17.4584 21.0533C17.4584 19.2705 18.9091 17.8199 20.692 17.8199Z" fill="none" stroke="#FF4B1B" stroke-width="1.5px"/>
</svg>
