<svg width="78" height="80" viewBox="0 0 78 80" fill="none" xmlns="http://www.w3.org/2000/svg">
<path d="M28.699 64.8531C28.699 64.1628 29.2587 63.6031 29.949 63.6031H49.7141C50.4045 63.6031 50.9641 64.1628 50.9641 64.8531C50.9641 65.5434 50.4045 66.1031 49.7141 66.1031H29.949C29.2585 66.1031 28.699 65.5434 28.699 64.8531V64.8531ZM29.949 24.2072H49.7141C50.4045 24.2072 50.9641 23.6475 50.9641 22.9572C50.9641 22.2669 50.4045 21.7072 49.7141 21.7072H29.949C29.2587 21.7072 28.699 22.2669 28.699 22.9572C28.699 23.6475 29.2585 24.2072 29.949 24.2072V24.2072ZM29.949 31.19H49.7141C50.4045 31.19 50.9641 30.6303 50.9641 29.94C50.9641 29.2497 50.4045 28.69 49.7141 28.69H29.949C29.2587 28.69 28.699 29.2497 28.699 29.94C28.699 30.6303 29.2585 31.19 29.949 31.19V31.19ZM14.8729 25.4992C14.3848 25.0111 13.5934 25.0111 13.1052 25.4992C12.6169 25.9873 12.6171 26.7787 13.1052 27.2669L15.9502 30.1119C16.1937 30.3553 16.5137 30.478 16.8343 30.478C17.1346 30.478 17.4354 30.3703 17.6741 30.1536L24.584 23.8828C25.0951 23.4189 25.1335 22.6283 24.6696 22.117C24.2057 21.6059 23.4152 21.5673 22.9038 22.0314L16.8759 27.5019L14.8729 25.4992ZM32.0584 4.52984C31.1977 4.52984 30.4959 5.23172 30.4959 6.09234C30.4959 6.95297 31.1977 7.65484 32.0584 7.65484C32.919 7.65484 33.6209 6.95297 33.6209 6.09234C33.6209 5.23172 32.919 4.52984 32.0584 4.52984ZM22.9037 33.9066L16.8757 39.377L14.8727 37.3742C14.3846 36.8861 13.5932 36.8861 13.1051 37.3742C12.6168 37.8623 12.617 38.6537 13.1051 39.1419L15.9501 41.9869C16.1935 42.2303 16.5135 42.353 16.8341 42.353C17.1345 42.353 17.4352 42.2453 17.674 42.0286L24.5838 35.7578C25.0949 35.2939 25.1334 34.5033 24.6695 33.992C24.2055 33.4811 23.4151 33.4427 22.9037 33.9066V33.9066ZM22.9037 45.7816L16.8757 51.252L14.8727 49.2492C14.3846 48.7611 13.5932 48.7611 13.1051 49.2492C12.6168 49.7373 12.617 50.5287 13.1051 51.0169L15.9501 53.8619C16.1935 54.1053 16.5135 54.228 16.8341 54.228C17.1345 54.228 17.4352 54.1203 17.674 53.9036L24.5838 47.6328C25.0949 47.1689 25.1334 46.3783 24.6695 45.867C24.2055 45.3561 23.4151 45.3177 22.9037 45.7816V45.7816ZM22.9037 57.6567L16.8757 63.1272L14.8727 61.1244C14.3846 60.6363 13.5932 60.6363 13.1051 61.1244C12.6168 61.6125 12.617 62.4039 13.1051 62.892L15.9501 65.737C16.1935 65.9805 16.5135 66.1031 16.8341 66.1031C17.1345 66.1031 17.4352 65.9955 17.674 65.7788L24.5838 59.508C25.0949 59.0441 25.1334 58.2534 24.6695 57.7422C24.2055 57.2311 23.4151 57.1927 22.9037 57.6567V57.6567ZM76.5157 58.2367C75.3016 60.3394 73.1274 61.5947 70.6996 61.5947H63.5377V75.2755C63.5377 77.8806 61.4184 80 58.813 80H5.30367C2.69851 80 0.578979 77.8806 0.578979 75.2755V11.3419C0.578979 8.73672 2.69835 6.61719 5.30367 6.61719H17.431V5.76703C17.431 5.07672 17.9907 4.51703 18.681 4.51703H25.4034C26.4685 1.81422 29.0788 0 32.0584 0C35.0379 0 37.6482 1.81422 38.7134 4.51703H45.4357C46.126 4.51703 46.6857 5.07672 46.6857 5.76703V6.61719H58.813C61.4182 6.61719 63.5377 8.73656 63.5377 11.3419V29.4539C63.9204 29.8495 64.2609 30.2953 64.5465 30.79L76.5157 51.5209C77.7296 53.6236 77.7296 56.1342 76.5157 58.2367V58.2367ZM46.6857 9.11719V11.4509H57.454C58.1443 11.4509 58.704 12.0106 58.704 12.7009V27.4328C58.7129 27.4328 58.7215 27.432 58.7304 27.432C59.5365 27.432 60.3134 27.5733 61.0377 27.835V11.3419C61.0377 10.1152 60.0398 9.11719 58.813 9.11719H46.6857ZM19.931 13.5511H44.1857V7.01703H37.8002C37.2227 7.01703 36.7204 6.62141 36.5851 6.06C36.0796 3.96406 34.2182 2.5 32.0584 2.5C29.8985 2.5 28.0371 3.96406 27.5315 6.06016C27.3962 6.62156 26.8938 7.01719 26.3163 7.01719H19.9309V13.5511H19.931ZM18.681 16.0511C17.9907 16.0511 17.431 15.4914 17.431 14.8011V13.9509H7.91273V72.6664H56.2041V61.5947H46.7615C44.6973 61.5947 42.8187 60.6847 41.5554 59.1205H29.949C29.2587 59.1205 28.699 58.5608 28.699 57.8705C28.699 57.1802 29.2587 56.6205 29.949 56.6205H40.2699C39.8649 55.1381 39.9879 53.5672 40.6329 52.138H29.949C29.2587 52.138 28.699 51.5783 28.699 50.888C28.699 50.1977 29.2587 49.638 29.949 49.638H42.0326L44.6207 45.1553H29.949C29.2587 45.1553 28.699 44.5956 28.699 43.9053C28.699 43.215 29.2587 42.6553 29.949 42.6553H46.064L48.652 38.1728H29.9488C29.2585 38.1728 28.6988 37.6131 28.6988 36.9228C28.6988 36.2325 29.2585 35.6728 29.9488 35.6728H49.714C49.8363 35.6728 49.9541 35.6911 50.0659 35.7239L52.9145 30.7902C53.6845 29.4564 54.8416 28.4653 56.2041 27.9175V13.9509H46.6859V14.8011C46.6859 15.4914 46.1262 16.0511 45.4359 16.0511H18.681ZM61.0377 61.5947H58.704V73.9164C58.704 74.6067 58.1443 75.1664 57.454 75.1664H6.66273C5.97242 75.1664 5.41273 74.6067 5.41273 73.9164V12.7009C5.41273 12.0106 5.97242 11.4509 6.66273 11.4509H17.431V9.11719H5.30367C4.07695 9.11719 3.07898 10.1152 3.07898 11.3419V75.2755C3.07898 76.5022 4.07695 77.5 5.30367 77.5H58.813C60.0398 77.5 61.0377 76.502 61.0377 75.2755V61.5947ZM74.3505 52.7709L62.3813 32.0398C61.6193 30.7198 60.2545 29.9319 58.7304 29.9319C57.2063 29.9319 55.8415 30.7198 55.0795 32.0398L43.1104 52.7709C42.3484 54.0909 42.3484 55.6669 43.1104 56.9867C43.8724 58.3066 45.2373 59.0947 46.7613 59.0947H70.6996C72.2237 59.0947 73.5885 58.3067 74.3505 56.9867C75.1126 55.6667 75.1126 54.0909 74.3505 52.7709ZM56.0513 48.1083L55.6898 38.092C55.6629 37.3475 55.9219 36.6703 56.4391 36.1341C56.9565 35.5978 57.6237 35.3144 58.3688 35.3144H59.0923C59.8373 35.3144 60.5045 35.5978 61.0218 36.1339C61.5391 36.6703 61.7984 37.3475 61.7713 38.092L61.4096 48.1083C61.3576 49.5572 60.1807 50.6925 58.7305 50.6925C57.2805 50.6923 56.1035 49.5573 56.0513 48.1083ZM58.188 38.0017L58.5496 48.018C58.5532 48.1156 58.6326 48.1923 58.7305 48.1923C58.8284 48.1923 58.9077 48.1158 58.9113 48.0181L59.273 38.0017C59.2754 37.9377 59.2668 37.9155 59.2224 37.8695C59.1782 37.8236 59.1562 37.8142 59.0923 37.8142H58.3688C58.3048 37.8142 58.2829 37.8236 58.2387 37.8695C58.1941 37.9156 58.1857 37.9378 58.188 38.0017V38.0017ZM61.8137 54.5477C61.8137 56.2477 60.4305 57.6308 58.7305 57.6308C57.0305 57.6308 55.6474 56.2477 55.6474 54.5477C55.6474 52.8477 57.0305 51.4645 58.7305 51.4645C60.4305 51.4645 61.8137 52.8477 61.8137 54.5477ZM59.3137 54.5477C59.3137 54.2261 59.0521 53.9645 58.7305 53.9645C58.409 53.9645 58.1474 54.2261 58.1474 54.5477C58.1474 54.8692 58.409 55.1308 58.7305 55.1308C59.0521 55.1308 59.3137 54.8692 59.3137 54.5477Z" fill="none" stroke="#FF4B1B" stroke-width="1.5px"/>
</svg>
