<svg width="40" height="40" viewBox="0 0 40 40" fill="none" xmlns="http://www.w3.org/2000/svg">
<circle cx="20" cy="20" r="20" fill="white"/>
<path d="M11.8621 14.4375V18.3438H13.9113V14.4375L16.67 8H14.5025L12.8867 12.1875L11.2709 8H9.02463L11.8621 14.4375ZM17.3793 14.6875C17.3793 16.125 17.5369 16.6562 17.7734 17.2188C18.2069 18.125 18.9951 18.5625 20.2167 18.5625C21.4384 18.5625 22.266 18.125 22.6995 17.2188C22.936 16.6562 23.0936 16.125 23.0936 14.6875C23.0936 13.25 22.936 12.4688 22.6995 11.9062C22.266 11 21.4384 10.5625 20.2167 10.5625C18.9951 10.5625 18.2069 11 17.7734 11.9062C17.5369 12.5 17.3793 13.25 17.3793 14.6875ZM29.8325 18.3438V10.7812H27.9409V15.3125C27.9409 15.7812 27.9015 16.1562 27.8227 16.3438C27.7044 16.7188 27.4286 16.875 27.0739 16.875C26.7192 16.875 26.4828 16.7188 26.3645 16.4062C26.3251 16.2188 26.2857 15.875 26.2857 15.4375V10.7812H24.4729V16.5312C24.4729 17.875 25.064 18.5625 26.2857 18.5625C26.9951 18.5625 27.6256 18.2188 27.9803 17.5V18.3438H29.8325ZM21.1626 14.5312V15.0938C21.1626 16 21.1626 16 21.1232 16.125C21.0049 16.75 20.6897 17.0938 20.2167 17.0938C19.7044 17.0938 19.4286 16.7188 19.3103 15.9688V14.3125C19.3103 13.5312 19.3103 13.0312 19.3498 12.875C19.468 12.3125 19.7438 12.0625 20.2167 12.0625C20.6897 12.0625 21.0049 12.4062 21.1232 13C21.1626 13.1875 21.1626 13.6875 21.1626 14.5312ZM12.0197 19.4062H27.9803C30.1872 19.4062 32 20.875 32 22.625V28.7812C32 30.5312 30.1872 32 27.9803 32H12.0197C9.81281 32 8 30.5312 8 28.7812V22.625C8 20.875 9.81281 19.4062 12.0197 19.4062ZM13.4384 22.7812H15.0936V21.4688H10.3251V22.7812H11.9803V29.4688H13.4384V22.7812ZM22.0296 29.4688V28.8125C22.266 29.3125 22.6995 29.625 23.2512 29.625C23.9212 29.625 24.3941 29.25 24.5911 28.4688C24.7094 28.0938 24.7882 27.4375 24.7882 26.5C24.7882 25.5312 24.7094 24.8438 24.6305 24.4375C24.4335 23.6562 23.9212 23.2812 23.2512 23.2812C22.7389 23.2812 22.3448 23.5312 22.1084 23.9688V21.4688H20.8079V29.4688H22.0296ZM26.9951 26.6562H29.6749V26.1875C29.6749 25.0625 29.5172 24.3438 29.2808 23.9688C28.9655 23.5312 28.4138 23.2812 27.7044 23.2812C26.9557 23.2812 26.4039 23.5312 26.0887 23.9375C25.8916 24.1875 25.734 24.5625 25.6946 25.0625C25.6552 25.2812 25.6158 25.7188 25.6158 26.2812C25.6158 27 25.6552 27.4688 25.6946 27.7188C25.734 28.2812 25.8916 28.75 26.1281 29.0625C26.4433 29.4375 26.9951 29.625 27.665 29.625C28.335 29.625 28.8473 29.4688 29.1626 29.1562C29.4778 28.8438 29.6355 28.3438 29.6355 27.625V27.375H28.335C28.335 28.1875 28.1379 28.5625 27.7044 28.5625C27.3892 28.5625 27.1527 28.375 27.0739 28C26.9951 27.8125 26.9951 27.4688 26.9951 27.0312V26.6562ZM18.2857 29.4688H19.6256V23.4375H18.2463V27.2812C18.2463 27.625 18.2463 27.875 18.1675 28.0312C18.0887 28.2812 17.931 28.4062 17.6552 28.4062C17.4187 28.4062 17.2217 28.3125 17.1429 28.0625C17.064 27.9375 17.064 27.6875 17.064 27.375V23.4375H15.803V28.1562C15.803 29.125 16.1576 29.625 17.064 29.625C17.5764 29.625 18.0099 29.3438 18.2857 28.8438V29.4688ZM26.9951 25.5312V25.4375C26.9557 25.0938 26.9951 24.7812 27.1133 24.5938C27.2315 24.4375 27.4286 24.3438 27.665 24.3438C27.9409 24.3438 28.1379 24.4688 28.2167 24.6875C28.2956 24.8438 28.2956 25.0938 28.2956 25.4375V25.6875H26.9951V25.5312ZM22.8177 24.4375C23.133 24.4375 23.33 24.75 23.4089 25.2812V26.4688C23.4089 26.4688 23.4089 27.5625 23.3695 27.6562C23.33 28.1875 23.133 28.4688 22.8177 28.4688C22.4631 28.4688 22.1872 28.25 22.1084 27.8125C22.069 27.6562 22.069 27.2812 22.069 26.7188C22.069 25.9375 22.069 25.5 22.1084 25.375C22.1872 24.7812 22.4236 24.4375 22.8177 24.4375Z" fill="#06042F"/>
</svg>
